<?xml version="1.0" encoding="utf-8"?>
<!-- Generator: Adobe Illustrator 27.8.1, SVG Export Plug-In . SVG Version: 6.00 Build 0)  -->
<svg version="1.1" id="Layer_1" xmlns="http://www.w3.org/2000/svg" xmlns:xlink="http://www.w3.org/1999/xlink" x="0px" y="0px"
	 viewBox="0 0 512 512" style="enable-background:new 0 0 512 512;" xml:space="preserve">
<style type="text/css">
	.st0{fill:#10100E;}
	.st1{fill:#B72E33;}
	.st2{fill:#DDC31B;}
	.st3{fill:#F81D0B;}
	.st4{fill:#C90A08;}
	.st5{fill:#D10402;}
	.st6{fill:#F7DF08;}
</style>
<g>
	<path class="st0" d="M120,191.58c7.76-21.73,19.84-40.79,36.43-56.75c14.74-14.19,32.6-23.44,52.01-29.34
		c50.46-15.32,96.52-5.76,137.33,27c25.6,20.55,39.91,48.53,46.86,80.33c3.18,14.54,4.72,29.33,5.61,44.18
		c-4.65-5.43-9-11.23-15.24-14.97c-2.79-1.67-3.31-4.56-4.87-6.89c-4.06-20.8-8.1-41.45-21.21-59.17
		c-28.79-38.9-75.99-60.95-128.47-51.42c-46.57,8.46-95.72,47.78-97.86,112.89c-5.97,5.51-12.37,10.58-17.52,16.94
		c-3.55-6.18-2.17-12.77-1.39-19.22c1.18-9.76,2.65-19.47,4-29.21c0.11-1.07,0.22-2.13,0.33-3.2c1.23-0.81,1.81-1.96,1.84-3.42
		C119.96,197.14,120.04,194.38,120,191.58z"/>
	<path class="st0" d="M361.65,341.22c-6.44,10.06-7.7,10.51-21.24,7.56c-5.15-4-6.46-9.49-6.46-15.71
		c-0.01-30.36,0-60.72-0.34-91.08c-0.09-8.21,2.35-14.44,9.81-18.31c7.75,0.19,14.56,2,17.68,10.2
		C361.29,269.66,361.47,305.44,361.65,341.22z"/>
	<path class="st1" d="M305.68,433.61c0-8.91,0.32-17.84-0.08-26.74c-0.57-12.69,0.64-24.44,11.68-33.04
		c2.24-1.74,3.29-4.93,5.31-7.06c5.07-5.33,6.37-11.76,5.22-18.59c-2.38-14.31,0.15-28.36,1.53-42.5
		c1.37-14.04,3.16-28.58-2.3-41.72c-2.76-6.64-0.56-12.13-1.23-18.08c-0.75-6.57,1.11-12.3,5.25-17.61
		c4.42-5.66,5.31-12.66,2.55-19.02c-4.63-10.66-12-19.86-21.97-25.68c-7.58-4.43-10.07-10.96-12.45-18.22
		c4.29,0.38,7.43,3.12,10.68,5.47c18.22,13.13,29.34,30.8,33.53,52.86c-7.46,3.87-9.9,10.1-9.81,18.31
		c0.33,30.36,0.32,60.72,0.34,91.08c0,6.22,1.31,11.71,6.46,15.71c-5.42,4.86-6.08,12.58-10.75,17.92
		c-2.68,3.07-4.52,7.08-7.63,9.51c-9.36,7.29-10.56,16.84-9.62,27.66c0.58,6.62-0.06,13.34-0.13,20.01"/>
	<path class="st2" d="M361.65,341.22c-0.18-35.78-0.36-71.56-0.55-107.33c5.8-1.22,11.11,4.02,17.02,1.26
		c1.56,2.33,2.08,5.22,4.87,6.89c6.24,3.74,10.59,9.54,15.24,14.97c8.81,11.54,11.95,24.33,8.97,38.68
		c-2.71,13.05-8.28,24.37-17.83,33.91C381.59,337.36,372.81,341.89,361.65,341.22z M367.95,292.55c0,11.74-0.22,21.76,0.06,31.78
		c0.25,8.95,4.55,11.06,12.15,6.33c1.25-0.78,2.45-1.7,3.45-2.78c13.49-14.54,20.72-31.29,17.8-51.49c-0.49-3.35-2.03-6.38-4.31-8.9
		c-3.93-4.36-8.04-8.3-10.3-14.19c-1.93-5.01-7.95-6.27-12.65-8.41c-1.95-0.89-3.7-0.1-4.86,1.51c-2.18,3.05-4.39,6.48-3.25,10.27
		C369.76,269.1,366.9,281.77,367.95,292.55z"/>
	<path class="st3" d="M243.65,431.6c-4.74,0.3-7.36-3.14-10.08-6.09c-7-7.62-13.89-15.35-20.67-23.16c-0.87-1-0.89-2.74-1.29-4.15
		c-0.97-0.3-1.94-0.6-2.91-0.89c1.62-2.04,2.17-0.14,2.99,0.81c10.06,1.16,18.37,7.74,28.36,9.18c2.54,0.37,4.98,1.54,7.52,1.86
		c3.84,0.48,6.62-0.8,6.52-5.36c-0.02-1.11,0.04-2.23,0.04-3.35c-0.03-34.6,0.71-69.23-0.56-103.78c-0.4-11.1,1.33-22.05,0.35-32.96
		c-3.18-35.59-1.41-71.27-2.25-106.89c-11.2-1.12-21.79,1.58-32.29,5c-4.81,1.57-9.3,4.56-14.72,3.76l0.03-0.07
		c0.41,3.25-2.23,4.26-4.16,5.96c-13.12,11.62-25.86,23.52-29.78,41.77c-0.61,2.86-2.17,5.24,0.16,8.27
		c7.34,9.52,9.25,20.75,9.27,32.41c0.05,24.91,0.04,49.8,0.01,74.71c-0.01,5.18,0.3,10.33-1.6,15.41c-1.5,4.01-0.71,8.21,1.73,11.73
		c4.42,6.38,7.76,13.57,13.41,19.06c3.87,3.76,7.29,8.34,7.79,13.25c1.18,11.74,4.34,23.42,3.02,35.28
		c-0.61,5.5,25.88,9.07,35.97,8.65L243.65,431.6"/>
	<path class="st0" d="M146.11,233.83c2.3-8.29,8.7-10.08,16.15-10.21c8.59,3.8,11.68,10.7,11.68,19.75
		c-0.02,29.78,0.06,59.55,0.38,89.33c0.05,5.43-2.23,10.08-3.28,15.14c-14.84,3.79-17.39,2.93-24.29-8.09
		C147.31,304.43,147.05,269.13,146.11,233.83z"/>
	<path class="st2" d="M119.48,324.95c-18.51-19.42-20.88-45.51-6.4-70.59c5.14-6.35,11.54-11.42,17.51-16.93
		c5.41-0.19,9.93-4.23,15.52-3.63c0.93,35.31,1.19,70.62,0.65,105.92c-5.58,0.64-10.6-2.02-15.95-2.71
		c-1.46-1.86-2.92-3.72-4.38-5.58l0.64-0.74c4.92-0.14,8.78,3.71,13.26,4.16c0.86-1.07,1.69-1.62,1.69-2.16
		c0.03-14.05,1.51-28.06-1.17-42.14c-1.44-7.53-1.56-15.82,0.02-23.28c1.46-6.91,0.89-13.1-0.57-19.6c-1.5-6.64-3.68-7.69-8.56-3.03
		c-7.44,7.1-14.63,14.11-19.05,24.13c-5.68,12.86-5.07,24.86-0.69,37.45c2.19,6.28,7.95,10.87,8.38,17.95
		C120.06,324.44,119.77,324.69,119.48,324.95z"/>
	<path class="st4" d="M116.02,202.75c-0.01-1.47,0.56-2.63,1.84-3.42C117.83,200.79,117.25,201.94,116.02,202.75z"/>
	<path class="st5" d="M211.67,398.12c10.06,1.16,18.37,7.74,28.36,9.18c2.54,0.37,4.98,1.54,7.52,1.86c3.84,0.48,6.62-0.8,6.52-5.36
		c-0.02-1.11,0.04-2.23,0.04-3.35c-0.03-34.6,0.71-69.23-0.56-103.78c-0.4-11.1,1.33-22.05,0.35-32.96
		c-3.18-35.59-1.41-71.27-2.24-106.89c12.67,0.05,25.08,1.62,36.72,6.98c3.51,1.62,6.98,2.4,10.76,1.58l0.06-0.02
		c2.38,7.27,4.87,13.79,12.45,18.22c9.97,5.82,17.33,15.03,21.97,25.68c2.76,6.35,1.88,13.35-2.55,19.02
		c-4.15,5.31-5.99,11.04-5.25,17.61c0.67,5.95-1.52,11.43,1.23,18.08c5.46,13.14,3.67,27.68,2.3,41.72
		c-1.38,14.14-3.91,28.18-1.53,42.5c1.14,6.83-0.15,13.26-5.22,18.59c-2.02,2.13-3.07,5.31-5.31,7.06
		c-11.03,8.59-12.26,20.35-11.68,33.04c0.4,8.9,0.08,17.82,0.08,26.74c-20.7,0.04-41.3-3.3-62.04-2.01
		c-4.74,0.3-7.36-3.14-10.08-6.09c-7-7.62-13.89-15.35-20.67-23.16c-0.87-1-0.89-2.74-1.29-4.15L211.67,398.12z"/>
	<path class="st6" d="M367.95,292.55c-1.05-10.78,1.81-23.45-1.91-35.87c-1.14-3.8,1.08-7.21,3.25-10.27
		c1.15-1.62,2.9-2.41,4.86-1.51c4.7,2.14,10.72,3.4,12.65,8.41c2.27,5.87,6.37,9.83,10.3,14.19c2.27,2.53,3.82,5.54,4.31,8.9
		c2.92,20.2-4.31,36.95-17.8,51.49c-1,1.07-2.2,2-3.45,2.78c-7.6,4.74-11.9,2.62-12.15-6.33
		C367.74,314.31,367.95,304.29,367.95,292.55z"/>
	<path class="st1" d="M299.15,165.37c-3.79,0.82-7.25,0.04-10.76-1.58c-11.64-5.36-24.04-6.92-36.72-6.98
		c-11.2-1.12-21.79,1.58-32.29,5c-4.81,1.57-9.3,4.56-14.72,3.76c18.12-12.16,38.36-14.98,59.41-12.47
		C276.5,154.57,288.82,157.41,299.15,165.37z"/>
	<path class="st5" d="M211.6,398.21c-0.97-0.3-1.94-0.6-2.91-0.89c1.62-2.04,2.17-0.14,2.99,0.81
		C211.67,398.12,211.6,398.21,211.6,398.21z"/>
	<path class="st2" d="M121.69,327.26c-0.73-0.77-1.47-1.54-2.2-2.3c0.28-0.26,0.57-0.51,0.86-0.76c0.71,0.75,1.43,1.5,2.15,2.25
		C122.23,326.72,121.96,326.98,121.69,327.26z"/>
	<path class="st2" d="M124.01,329.42c-0.78-0.72-1.54-1.44-2.32-2.16c0.27-0.27,0.54-0.53,0.81-0.81c0.75,0.74,1.5,1.47,2.25,2.21
		C124.75,328.66,124.01,329.42,124.01,329.42z"/>
	<path class="st2" d="M126.43,331.46c-0.81-0.68-1.62-1.36-2.42-2.05l0.74-0.75c0.77,0.68,1.54,1.36,2.32,2.05L126.43,331.46z"/>
	<path class="st6" d="M127.07,330.72c-0.78-0.68-1.54-1.36-2.32-2.05c-0.75-0.74-1.5-1.47-2.25-2.21c-0.71-0.75-1.44-1.5-2.15-2.25
		c-0.42-7.08-6.19-11.67-8.38-17.95c-4.38-12.59-4.99-24.59,0.69-37.45c4.43-10.02,11.61-17.03,19.05-24.13
		c4.89-4.67,7.07-3.62,8.56,3.03c1.47,6.52,2.04,12.7,0.57,19.6c-1.58,7.46-1.45,15.74-0.02,23.28c2.68,14.09,1.2,28.1,1.17,42.14
		c0,0.55-0.83,1.1-1.69,2.16C135.84,334.43,131.98,330.58,127.07,330.72z"/>
</g>
</svg>
